<?xml version="1.0" encoding="utf-8"?>
<!-- Generator: Adobe Illustrator 24.1.2, SVG Export Plug-In . SVG Version: 6.00 Build 0)  -->
<svg version="1.1" id="Layer_1" xmlns="http://www.w3.org/2000/svg" xmlns:xlink="http://www.w3.org/1999/xlink" x="0px" y="0px"
	 viewBox="0 0 4096 2160" style="enable-background:new 0 0 4096 2160;" xml:space="preserve">
<style type="text/css">
	.st0{enable-background:new    ;}
	.st1{clip-path:url(#SVGID_2_);enable-background:new    ;}
	.st2{fill:#208D84;}
	.st3{clip-path:url(#SVGID_4_);enable-background:new    ;}
	.st4{fill:#196F68;}
	.st5{fill:#1A736C;}
	.st6{fill:#1B7770;}
	.st7{fill:#1C7C74;}
	.st8{fill:#1D8078;}
	.st9{fill:#1E847C;}
	.st10{fill:#1F8880;}
	.st11{clip-path:url(#SVGID_6_);enable-background:new    ;}
	.st12{clip-path:url(#SVGID_8_);enable-background:new    ;}
	.st13{clip-path:url(#SVGID_10_);enable-background:new    ;}
	.st14{fill:#A8A8A8;}
	.st15{fill:#A3A3A3;}
	.st16{fill:#9E9E9E;}
	.st17{clip-path:url(#SVGID_12_);enable-background:new    ;}
	.st18{fill:#858585;}
	.st19{fill:#8A8A8A;}
	.st20{fill:#8F8F8F;}
	.st21{fill:#949494;}
	.st22{fill:#999999;}
	.st23{fill:#DFDFDF;}
	.st24{clip-path:url(#SVGID_14_);enable-background:new    ;}
	.st25{clip-path:url(#SVGID_16_);enable-background:new    ;}
	.st26{clip-path:url(#SVGID_18_);enable-background:new    ;}
	.st27{clip-path:url(#SVGID_20_);enable-background:new    ;}
	.st28{clip-path:url(#SVGID_22_);enable-background:new    ;}
	.st29{fill:#2ABAAF;}
	.st30{clip-path:url(#SVGID_24_);enable-background:new    ;}
	.st31{clip-path:url(#SVGID_26_);enable-background:new    ;}
	.st32{clip-path:url(#SVGID_28_);enable-background:new    ;}
	.st33{clip-path:url(#SVGID_30_);enable-background:new    ;}
	.st34{clip-path:url(#SVGID_32_);enable-background:new    ;}
	.st35{clip-path:url(#SVGID_34_);enable-background:new    ;}
	.st36{clip-path:url(#SVGID_36_);enable-background:new    ;}
	.st37{clip-path:url(#SVGID_38_);enable-background:new    ;}
	.st38{clip-path:url(#SVGID_40_);enable-background:new    ;}
	.st39{clip-path:url(#SVGID_42_);enable-background:new    ;}
	.st40{clip-path:url(#SVGID_44_);enable-background:new    ;}
	.st41{clip-path:url(#SVGID_46_);enable-background:new    ;}
	.st42{clip-path:url(#SVGID_48_);enable-background:new    ;}
	.st43{clip-path:url(#SVGID_50_);enable-background:new    ;}
	.st44{clip-path:url(#SVGID_52_);enable-background:new    ;}
	.st45{fill:#FFFFFF;}
	.st46{clip-path:url(#SVGID_54_);enable-background:new    ;}
	.st47{clip-path:url(#SVGID_56_);enable-background:new    ;}
	.st48{clip-path:url(#SVGID_58_);enable-background:new    ;}
	.st49{clip-path:url(#SVGID_60_);enable-background:new    ;}
	.st50{clip-path:url(#SVGID_62_);enable-background:new    ;}
	.st51{clip-path:url(#SVGID_64_);enable-background:new    ;}
	.st52{clip-path:url(#SVGID_66_);enable-background:new    ;}
	.st53{clip-path:url(#SVGID_68_);enable-background:new    ;}
	.st54{clip-path:url(#SVGID_70_);enable-background:new    ;}
	.st55{clip-path:url(#SVGID_72_);enable-background:new    ;}
	.st56{clip-path:url(#SVGID_74_);enable-background:new    ;}
	.st57{clip-path:url(#SVGID_76_);enable-background:new    ;}
	.st58{clip-path:url(#SVGID_78_);enable-background:new    ;}
	.st59{clip-path:url(#SVGID_80_);enable-background:new    ;}
	.st60{clip-path:url(#SVGID_82_);enable-background:new    ;}
	.st61{fill:#282828;}
	.st62{clip-path:url(#SVGID_84_);enable-background:new    ;}
	.st63{fill:#1F1F1F;}
	.st64{fill:#202020;}
	.st65{fill:#222222;}
	.st66{fill:#232323;}
	.st67{fill:#242424;}
	.st68{fill:#252525;}
	.st69{fill:#262626;}
	.st70{clip-path:url(#SVGID_86_);enable-background:new    ;}
	.st71{clip-path:url(#SVGID_88_);enable-background:new    ;}
	.st72{clip-path:url(#SVGID_90_);enable-background:new    ;}
	.st73{clip-path:url(#SVGID_92_);enable-background:new    ;}
	.st74{fill:#343434;}
	.st75{clip-path:url(#SVGID_94_);enable-background:new    ;}
	.st76{clip-path:url(#SVGID_96_);enable-background:new    ;}
	.st77{clip-path:url(#SVGID_98_);enable-background:new    ;}
	.st78{clip-path:url(#SVGID_100_);enable-background:new    ;}
	.st79{clip-path:url(#SVGID_102_);enable-background:new    ;}
	.st80{clip-path:url(#SVGID_104_);enable-background:new    ;}
	.st81{clip-path:url(#SVGID_106_);enable-background:new    ;}
	.st82{clip-path:url(#SVGID_108_);enable-background:new    ;}
	.st83{clip-path:url(#SVGID_110_);enable-background:new    ;}
	.st84{clip-path:url(#SVGID_112_);enable-background:new    ;}
	.st85{clip-path:url(#SVGID_114_);enable-background:new    ;}
	.st86{clip-path:url(#SVGID_116_);enable-background:new    ;}
	.st87{clip-path:url(#SVGID_118_);enable-background:new    ;}
	.st88{clip-path:url(#SVGID_120_);enable-background:new    ;}
	.st89{fill:#30D5C8;}
</style>
<g>
	<path class="st89" d="M3159.87,473.52c-25.6,4.78-68.96,12.66-122.99,21.23c-143.95,22.8-189.06,23.03-279.97,46.65
		c-69.81,18.16-104.74,27.22-146.34,53.05c-21.36,13.25-94.64,60.03-137.86,152.69c-28.21,60.57-32,115.83-33.94,148.46
		c-2.88,48.85,4.37,60.53,4.28,114.52c-0.09,22.67-0.63,89.28-21.23,159.05c-34.66,117.63-110.19,191.36-133.63,212.09
		c-52.01,46.15-99.87,69.13-184.51,108.17c-54.35,25.06-101.58,42-135.75,53.05c0.31-0.9-225.16,212.5-278.89,269.87
		c-59.13,63.19-100.37,95.59-154.27,117.72c-49.8,20.42-95.05,25.78-125.7,27.04c6.31-13.48,16.18-33.17,30.24-55.66
		c45.07-72.11,96.4-114.34,119.3-133.63c75.76-63.86,132.14-123.71,244.95-243.37c33.67-35.7,81.9-94,150.33-156.69
		c17.8-16.31,149.77-97.95,166.23-108.95c61.22-40.89,78.28-80.27,98.61-112.94c41.28-66.39,43.63-134.8,44.53-162.25
		c0.86-25.15,2.03-73.87-20.64-128.85c-3.06-7.39-5.95-13.39-7.98-17.49c1.08-32.54,8.02-79.01,35.02-125.65
		c24.38-42.23,54.8-66.7,82.7-89.1c17.22-13.84,47.55-37.9,93.29-56.74c37.86-15.55,71.3-21.41,94.42-25.42
		c34.43-6.04,51.65-9.06,68.37-8.52c8.25,0.27,18.39-1.13,32.9-2.12c15.91-1.04,38.17-4.78,37.09-23.3
		c-1.13-20.15-19.6-21.23-34.48-21.23c-14.87-0.59-23.89-0.05-57.78,3.2c-31.59,2.97-32.04,0.18-63.1,3.7
		c-18.43,2.07-22.04,3.52-46.11,6.9c-24.29,3.43-44.17,5.27-57.28,6.35c-0.77-3.24-5.77-23.89-25.46-33.94
		c-23.17-11.85-46.29,1.4-50.88,4.24c-4.06,2.52-22.17,13.66-25.46,36.06c-2.97,20.42,8.43,35.42,10.59,38.17
		c-24.02,16.9-61.61,47.82-93.29,97.57c-35.2,55.21-46.65,107.76-50.93,137.87c-20.82-30.02-54.58-69.63-106.05-101.81
		c-16.95-10.64-33.44-18.93-48.76-25.46c2.61-22.71,20.69-161.53,135.75-235.39c60.75-39.03,125.47-45.11,144.22-46.69
		c60.35-5,109.07,8.11,142.1,16.99c34.97,9.42,75.4,24.34,135.75,46.65c15.14,5.63,39.75,14.87,74.23,21.23
		c27,4.96,47.91,5.95,57.24,6.35c139.26,5.95,203.62,4.24,203.62,4.24C2977.25,469.91,3057.24,469.24,3159.87,473.52z"/>
	<path class="st89" d="M2145.57,1139.48c-35.71,30.14-85.99,73.47-144.75,127.25c-79.38,72.66-137.44,130.72-182.93,176.56
		c-197.06,198.61-240.24,250.65-357.9,367.44c-58.57,58.14-146.6,143.24-259.28,243.37c-3.24-36.75-2.76-67.3-1.59-89.08
		c2.79-52.21,5.25-90.7,27.04-128.84c13.95-24.42,29.76-38.11,47.72-54.08c48.48-43.13,92.5-91.15,141.57-133.62
		c16.22-14.04,70.73-71.92,179.75-187.7c105.87-112.43,140.12-150.29,205.2-211.56c35.32-33.25,65.02-59.56,84.31-76.35
		c4.55-1.6,11.12-3.85,19.09-6.36c18.78-5.91,72.64-21.85,146.34-27.04C2075.35,1137.71,2107.77,1136.84,2145.57,1139.48z"/>
	<path class="st89" d="M2171.02,1077.45c-24.34-0.67-60.81-0.96-104.98,1.59c-81.48,4.7-109.13,14.41-203.61,25.45
		c-94.98,11.1-142.47,16.64-190.88,7.95c-30.28-5.44-88.92-16.64-147.93-60.45c-69.95-51.93-99.79-119.5-111.35-151.11
		c21.46,5.05,52.16,12.23,89.08,20.68c142.49,32.6,213.73,48.91,294.27,63.63c110.77,20.24,169.37,30.85,217.92,36.59
		c28.82,3.4,58.41,4.14,83.51,8.75c10.69,1.96,44.1,15.17,51.7,19.88C2161.03,1058.03,2167.18,1069.69,2171.02,1077.45z"/>
	<path class="st89" d="M2188.52,1017.53c-31.49-12.03-85.12-28.51-142.1-44.54c-55.74-15.69-91.76-22.5-199.36-43.48
		c-251.65-49.07-155.97-31.58-235.42-46.66c-105.75-20.07-146.89-26.69-208.91-49.84c-33.54-12.52-72.19-20.97-110.29-50.9
		c-19.86-15.6-34.09-31.74-59.39-60.45c-28.43-32.26-42.65-48.39-54.08-72.11c-8.33-17.28-19.02-45.97-20.15-85.9
		c21.84,8.8,58.89,23.61,104.98,41.36c277.31,106.77,513.25,182.4,513.25,182.4c77.31,24.78,146.08,45.53,237.54,92.26
		c69.69,35.61,43.39,21.47,110.29,57.26c25.06,13.41,50.06,32.52,56.2,55.14C2183.81,1002.07,2190.03,1011.23,2188.52,1017.53z"/>
	<path class="st89" d="M2175.79,916.79c-5.52-15.94-14.66-38.6-29.69-63.63c-30.42-50.65-68.05-82.86-108.17-112.41
		c-69.03-50.84-128.52-81.35-183.46-109.23c-127.2-64.54-190.79-96.81-229.06-115.59c-139.65-68.54-209.48-102.82-268.29-130.43
		c-51.87-24.36-62.52-28.83-242.84-111.35c-75.19-34.41-136.93-62.73-178.15-81.65c0.67,12.89,2.29,30.45,6.36,50.9
		c4.4,22.07,18.65,82.61,61.51,141.04c44.35,60.46,97.52,88.94,152.7,117.71c49.35,25.73,75.14,31.47,161.19,60.45
		c101.16,34.07,74.85,29.27,239.66,88.02c122.49,43.66,131.61,44.38,258.75,90.14c125.43,45.14,166.33,62.36,212.09,85.9
		C2092.76,859.76,2142.68,893.01,2175.79,916.79z"/>
	<path class="st89" d="M2014.22,671.84c1.2-21.5,3.99-37.62,5.11-52.78c-8.76-5.46-27.22-14.86-43.28-25.37
		c-121.25-79.38-202.82-151.42-222.69-168.61c-62.65-54.22-187-147.48-454.93-319.19c-0.78,4.77-1.73,11.73-2.12,20.15
		c-1.35,28.73,4.67,52.42,20.15,94.38c17.97,48.72,26.48,73.24,36.06,86.96c18.29,26.19,38.44,41.69,56.2,55.14
		c38.81,29.38,89.22,50.2,96.78,53.64C1566.34,443.82,1753.02,537.16,2014.22,671.84z"/>
	<circle class="st45" cx="2370.54" cy="518.16" r="36.49"/>
</g>
</svg>
