<?xml version="1.0" encoding="utf-8"?>
<!-- Generator: Adobe Illustrator 24.1.2, SVG Export Plug-In . SVG Version: 6.00 Build 0)  -->
<svg version="1.1" id="Layer_1" xmlns="http://www.w3.org/2000/svg" xmlns:xlink="http://www.w3.org/1999/xlink" x="0px" y="0px"
	 viewBox="0 0 4096 2160" style="enable-background:new 0 0 4096 2160;" xml:space="preserve">
<style type="text/css">
	.st0{stroke:#000000;stroke-width:19;stroke-miterlimit:10;}
	.st1{fill:#FFFFFF;stroke:#FFFFFF;stroke-width:19;stroke-miterlimit:10;}
	.st2{fill:#2ABAAF;}
	.st3{fill:#FFFFFF;}
</style>
<g>
	<path class="st1" d="M162.43,814.33c-16.47,0-31.2,2.09-44.22,6.26c-13.01,4.19-24.49,9.77-34.44,16.76
		c-9.95,7.01-18.49,15.05-25.61,24.14c-7.12,9.08-12.9,18.6-17.32,28.55c-2.95,6.64-5.39,13.32-7.28,20.07h410.01
		c35.58,0,64.42-28.84,64.42-64.42v-31.37H162.43z M162.43,1246.85c-12.29,0-21.8-3.38-28.55-10.13
		c-6.76-6.75-10.14-16.27-10.14-28.55v-178.89H27.94v178.89c0,16.45,2.09,31.26,6.27,44.38c4.17,13.14,9.75,24.69,16.76,34.63
		c7,9.95,15.04,18.42,24.13,25.42c9.08,7.01,18.6,12.72,28.55,17.14c9.95,4.42,20.01,7.68,30.21,9.77
		c10.18,2.09,19.7,3.13,28.55,3.13h345.57v-95.79H162.43z"/>
	<path class="st1" d="M1150.11,869.41c-19.65-19.52-42.92-34.81-69.8-45.87c-26.9-11.05-56.19-16.58-87.87-16.58H862.75
		c-31.68,0-61.03,5.53-88.05,16.58c-27.02,11.05-50.35,26.35-70,45.87c-12.19,12.11-22.74,25.68-31.67,40.71h143.22
		c14.15-4.91,29.65-7.37,46.5-7.37h129.69c16.62,0,31.99,2.46,46.12,7.37h143.14C1172.83,895.09,1162.29,881.52,1150.11,869.41z
		 M1116.96,1029.28v99.68c0,18.91-3.01,36.04-9.03,51.39c-6.02,15.34-14.55,28.49-25.6,39.41c-11.05,10.94-24.26,19.4-39.6,25.42
		c-15.36,6.03-32.36,9.03-51.03,9.03H862.75c-18.67,0-35.68-3-51.02-9.03c-15.36-6.02-28.55-14.48-39.6-25.42
		c-11.05-10.93-19.6-24.07-25.61-39.41c-6.02-15.36-9.02-32.48-9.02-51.39v-99.68h-95.79v99.68c0,32.17,5.59,61.77,16.76,88.78
		c11.17,27.02,26.58,50.35,46.24,70c19.65,19.65,42.98,34.94,70,45.87c27.02,10.93,56.37,16.4,88.05,16.4h129.69
		c31.68,0,60.97-5.48,87.87-16.4c26.89-10.93,50.16-26.22,69.8-45.87s35.01-42.98,46.06-70c11.05-27.02,16.58-56.61,16.58-88.78
		v-99.68H1116.96z"/>
	<path class="st1" d="M1442.26,1246.85V814.33h-95.79v480.05c0,6.88,1.24,13.26,3.68,19.16c2.46,5.89,5.84,10.99,10.14,15.28
		c4.29,4.3,9.39,7.68,15.28,10.14c5.9,2.46,12.29,3.68,19.16,3.68h372.52c35.58,0,64.42-28.84,64.42-64.42v-31.37H1442.26z"/>
	<path class="st1" d="M1965.39,814.33v528.31h95.79V814.33H1965.39z"/>
	<path class="st1" d="M2716.55,1156.96c-4.17-15.47-9.82-29.35-16.94-41.63c-7.13-12.28-15.42-23.09-24.87-32.43
		c-9.46-9.33-19.6-17.32-30.39-23.95c6.88-9.57,12.72-19.47,17.51-29.67h-145.48c-4.66,0.63-9.55,0.94-14.61,0.94h-172.78v96.53
		h215.89c12.52,0,23.82,1.91,33.9,5.71c10.06,3.81,18.66,9.28,25.78,16.4c7.13,7.12,12.65,15.65,16.58,25.6
		c3.93,9.95,5.9,21.18,5.9,33.72v17.68c0,5.15-0.73,9.21-2.22,12.16c-1.47,2.94-3.2,5.04-5.15,6.26c-1.97,1.22-4.19,1.97-6.64,2.2
		c-2.46,0.26-4.55,0.37-6.26,0.37h-316.1V1093.7c0-35.58-28.84-64.42-64.42-64.42h-31.36v265.1c0,6.88,1.22,13.26,3.68,19.16
		c2.45,5.89,5.82,10.99,10.13,15.28c4.29,4.3,9.39,7.68,15.29,10.14c5.89,2.46,12.28,3.68,19.16,3.68h363.62
		c21.37,0,39.42-3.88,54.15-11.61c14.74-7.74,26.72-17.37,35.92-28.92c9.21-11.54,15.85-24.07,19.91-37.57
		c4.05-13.51,6.07-26.17,6.07-37.96v-18.41C2722.81,1189.51,2720.73,1172.43,2716.55,1156.96z"/>
	<path class="st2" d="M2678.73,910.12c-1.71-12.61-5.14-23.8-10.24-33.52c-7.74-14.74-17.44-26.71-29.1-35.92
		c-11.67-9.21-24.26-15.9-37.76-20.09c-13.51-4.17-26.17-6.26-37.96-6.26h-320.51c-6.88,0-13.27,1.24-19.16,3.69
		c-5.9,2.46-11,5.9-15.29,10.32c-4.3,4.42-7.68,9.57-10.13,15.47c-2.46,5.89-3.68,12.16-3.68,18.78v47.53H2678.73z"/>
	<path class="st1" d="M3207.26,1169.86c11.79,0,24.36-1.35,37.76-4.06c13.37-2.71,26.64-7.06,39.79-13.08
		c13.13-6.02,25.73-13.7,37.76-23.02c12.03-9.33,22.65-20.58,31.86-33.72c9.21-13.13,16.52-28.31,21.93-45.49
		c2.11-6.71,3.81-13.79,5.09-21.21h-100.44c-3.78,7.99-8.77,14.93-15,20.83c-7.24,6.88-15.83,12.34-25.78,16.4
		c-9.95,4.05-20.95,6.57-32.97,7.55h-216.63v95.79h68.89l199.67,172.78h148.11L3207.26,1169.86z"/>
	<path class="st2" d="M3382.56,910.12c-1-5.6-2.4-11.36-4.17-17.32c-4.06-13.5-10.68-26.09-19.89-37.76
		c-9.21-11.66-21.18-21.36-35.92-29.1c-14.74-7.73-32.79-11.61-54.16-11.61h-363.62c-6.88,0-13.27,1.24-19.16,3.69
		c-5.9,2.46-10.99,5.9-15.29,10.32c-4.29,4.42-7.68,9.57-10.13,15.47c-2.46,5.89-3.69,12.16-3.69,18.78v47.53H3382.56z"/>
	<path class="st1" d="M2856.53,1342.64h95.79V1093.7c0-35.58-28.84-64.42-64.42-64.42h-31.37V1342.64z"/>
	<path class="st1" d="M4068.05,932.57c0,21.86-2.76,59.9-8.29,77.09c-5.53,17.19-12.84,32.36-21.92,45.5
		c-9.09,13.14-19.71,24.38-31.87,33.71c-12.16,9.34-24.75,17.01-37.76,23.03c-13.02,6.02-26.22,10.38-39.6,13.08
		c-13.39,2.71-25.97,4.05-37.76,4.05h-38.68v224.02h-96.52v-224.02h-38.32c-11.79,0-24.38-1.35-37.76-4.05
		c-13.39-2.7-26.65-7.06-39.79-13.08c-13.14-6.02-25.73-13.69-37.76-23.03c-12.04-9.33-22.66-20.57-31.87-33.71
		c-9.21-13.14-16.58-28.37-22.1-45.68c-5.53-17.32-8.29-55.29-8.29-76.91V814.33h95.79v118.24c0,12.53,1.96,42.28,5.89,52.22
		c3.93,9.95,9.45,18.49,16.58,25.6c7.12,7.13,15.78,12.59,25.97,16.4c10.19,3.81,21.55,5.71,34.08,5.71h172.79
		c9.08-1.47,18.42-3.37,28-5.71c9.58-2.33,18.29-6.32,26.16-11.98c7.86-5.65,14.37-13.5,19.53-23.58
		c5.16-10.07,7.74-41.96,7.74-58.67V814.33c0,0,0,0,0,0c69.31-3.71,95.79,16.29,95.79,95.79V932.57z"/>
</g>
</svg>
