<?xml version="1.0" encoding="utf-8"?>
<!-- Generator: Adobe Illustrator 24.1.2, SVG Export Plug-In . SVG Version: 6.00 Build 0)  -->
<svg version="1.1" id="Layer_1" xmlns="http://www.w3.org/2000/svg" xmlns:xlink="http://www.w3.org/1999/xlink" x="0px" y="0px"
	 viewBox="0 0 4096 2160" style="enable-background:new 0 0 4096 2160;" xml:space="preserve">
<style type="text/css">
	.st0{enable-background:new    ;}
	.st1{clip-path:url(#SVGID_2_);enable-background:new    ;}
	.st2{fill:#208D84;}
	.st3{clip-path:url(#SVGID_4_);enable-background:new    ;}
	.st4{fill:#196F68;}
	.st5{fill:#1A736C;}
	.st6{fill:#1B7770;}
	.st7{fill:#1C7C74;}
	.st8{fill:#1D8078;}
	.st9{fill:#1E847C;}
	.st10{fill:#1F8880;}
	.st11{clip-path:url(#SVGID_6_);enable-background:new    ;}
	.st12{clip-path:url(#SVGID_8_);enable-background:new    ;}
	.st13{clip-path:url(#SVGID_10_);enable-background:new    ;}
	.st14{fill:#A8A8A8;}
	.st15{fill:#A3A3A3;}
	.st16{fill:#9E9E9E;}
	.st17{clip-path:url(#SVGID_12_);enable-background:new    ;}
	.st18{fill:#858585;}
	.st19{fill:#8A8A8A;}
	.st20{fill:#8F8F8F;}
	.st21{fill:#949494;}
	.st22{fill:#999999;}
	.st23{fill:#DFDFDF;}
	.st24{clip-path:url(#SVGID_14_);enable-background:new    ;}
	.st25{clip-path:url(#SVGID_16_);enable-background:new    ;}
	.st26{clip-path:url(#SVGID_18_);enable-background:new    ;}
	.st27{clip-path:url(#SVGID_20_);enable-background:new    ;}
	.st28{clip-path:url(#SVGID_22_);enable-background:new    ;}
	.st29{fill:#2ABAAF;}
	.st30{clip-path:url(#SVGID_24_);enable-background:new    ;}
	.st31{clip-path:url(#SVGID_26_);enable-background:new    ;}
	.st32{clip-path:url(#SVGID_28_);enable-background:new    ;}
	.st33{clip-path:url(#SVGID_30_);enable-background:new    ;}
	.st34{clip-path:url(#SVGID_32_);enable-background:new    ;}
	.st35{clip-path:url(#SVGID_34_);enable-background:new    ;}
	.st36{clip-path:url(#SVGID_36_);enable-background:new    ;}
	.st37{clip-path:url(#SVGID_38_);enable-background:new    ;}
	.st38{clip-path:url(#SVGID_40_);enable-background:new    ;}
	.st39{clip-path:url(#SVGID_42_);enable-background:new    ;}
	.st40{clip-path:url(#SVGID_44_);enable-background:new    ;}
	.st41{clip-path:url(#SVGID_46_);enable-background:new    ;}
	.st42{clip-path:url(#SVGID_48_);enable-background:new    ;}
	.st43{clip-path:url(#SVGID_50_);enable-background:new    ;}
	.st44{clip-path:url(#SVGID_52_);enable-background:new    ;}
	.st45{fill:#FFFFFF;}
	.st46{clip-path:url(#SVGID_54_);enable-background:new    ;}
	.st47{clip-path:url(#SVGID_56_);enable-background:new    ;}
	.st48{clip-path:url(#SVGID_58_);enable-background:new    ;}
	.st49{clip-path:url(#SVGID_60_);enable-background:new    ;}
	.st50{clip-path:url(#SVGID_62_);enable-background:new    ;}
	.st51{clip-path:url(#SVGID_64_);enable-background:new    ;}
	.st52{clip-path:url(#SVGID_66_);enable-background:new    ;}
	.st53{clip-path:url(#SVGID_68_);enable-background:new    ;}
	.st54{clip-path:url(#SVGID_70_);enable-background:new    ;}
	.st55{clip-path:url(#SVGID_72_);enable-background:new    ;}
	.st56{clip-path:url(#SVGID_74_);enable-background:new    ;}
	.st57{clip-path:url(#SVGID_76_);enable-background:new    ;}
	.st58{clip-path:url(#SVGID_78_);enable-background:new    ;}
	.st59{clip-path:url(#SVGID_80_);enable-background:new    ;}
	.st60{clip-path:url(#SVGID_82_);enable-background:new    ;}
	.st61{fill:#282828;}
	.st62{clip-path:url(#SVGID_84_);enable-background:new    ;}
	.st63{fill:#1F1F1F;}
	.st64{fill:#202020;}
	.st65{fill:#222222;}
	.st66{fill:#232323;}
	.st67{fill:#242424;}
	.st68{fill:#252525;}
	.st69{fill:#262626;}
	.st70{clip-path:url(#SVGID_86_);enable-background:new    ;}
	.st71{clip-path:url(#SVGID_88_);enable-background:new    ;}
	.st72{clip-path:url(#SVGID_90_);enable-background:new    ;}
	.st73{clip-path:url(#SVGID_92_);enable-background:new    ;}
	.st74{fill:#343434;}
	.st75{clip-path:url(#SVGID_94_);enable-background:new    ;}
	.st76{clip-path:url(#SVGID_96_);enable-background:new    ;}
	.st77{clip-path:url(#SVGID_98_);enable-background:new    ;}
	.st78{clip-path:url(#SVGID_100_);enable-background:new    ;}
	.st79{clip-path:url(#SVGID_102_);enable-background:new    ;}
	.st80{clip-path:url(#SVGID_104_);enable-background:new    ;}
	.st81{clip-path:url(#SVGID_106_);enable-background:new    ;}
	.st82{clip-path:url(#SVGID_108_);enable-background:new    ;}
	.st83{clip-path:url(#SVGID_110_);enable-background:new    ;}
	.st84{clip-path:url(#SVGID_112_);enable-background:new    ;}
	.st85{clip-path:url(#SVGID_114_);enable-background:new    ;}
	.st86{clip-path:url(#SVGID_116_);enable-background:new    ;}
	.st87{clip-path:url(#SVGID_118_);enable-background:new    ;}
	.st88{clip-path:url(#SVGID_120_);enable-background:new    ;}
	.st89{fill:#30D5C8;}
</style>
<g>
	<g class="st0">
		<g class="st0">
			<defs>
				<path id="SVGID_1_" class="st0" d="M2107.94,1058.73l-33.76-18.37c13.13-1.85,27.38-3.4,42.62-4.41l33.76,18.37
					C2135.32,1055.33,2121.07,1056.89,2107.94,1058.73z"/>
			</defs>
			<clipPath id="SVGID_2_">
				<use xlink:href="#SVGID_1_"  style="overflow:visible;"/>
			</clipPath>
			<g class="st1">
				<path class="st2" d="M2107.94,1058.73l-33.76-18.37c13.13-1.85,27.38-3.4,42.62-4.41l33.76,18.37
					C2135.32,1055.33,2121.07,1056.89,2107.94,1058.73"/>
			</g>
		</g>
		<g class="st0">
			<defs>
				<path id="SVGID_3_" class="st0" d="M2585.82,344.45l33.76,18.37c4.34,2.36,7.36,6.8,7.76,14.72
					c0.92,17.73-18.97,24.11-33.15,27.13c-11.84,2.54-20.46,4.96-32.79,6.6c-13.95,1.96-29.24,6.98-57.65,16.35
					c-20.65,6.74-50.51,16.64-84.29,36.37c-40.91,23.87-68.01,50.85-83.4,66.33c-24.96,25.08-52.17,52.53-73.96,96.24
					c-24.23,48.35-30.48,93.97-31.49,125.42l-33.76-18.37c1.01-31.45,7.26-77.07,31.49-125.42c21.79-43.71,49.01-71.16,73.96-96.24
					c15.39-15.48,42.49-42.46,83.4-66.33c33.79-19.73,63.64-29.62,84.29-36.37c28.41-9.38,43.69-14.39,57.65-16.35
					c12.33-1.64,20.94-4.05,32.79-6.6c14.18-3.02,34.06-9.4,33.15-27.13C2593.17,351.25,2590.16,346.81,2585.82,344.45z"/>
			</defs>
			<clipPath id="SVGID_4_">
				<use xlink:href="#SVGID_3_"  style="overflow:visible;"/>
			</clipPath>
			<g class="st3">
				<path class="st4" d="M2230.6,751.97l-33.76-18.37c0.79-24.75,4.84-58.29,18.34-95.02l33.76,18.37
					C2235.44,693.69,2231.4,727.22,2230.6,751.97"/>
				<path class="st5" d="M2248.94,656.95l-33.76-18.37c3.65-9.94,8-20.11,13.16-30.4c1.37-2.76,2.77-5.45,4.19-8.08l33.76,18.37
					c-1.42,2.63-2.81,5.32-4.19,8.08C2256.94,636.85,2252.59,647.02,2248.94,656.95"/>
				<path class="st6" d="M2266.28,618.47l-33.76-18.37c5.66-10.51,11.63-20.05,17.79-28.83l33.76,18.37
					C2277.91,598.42,2271.94,607.96,2266.28,618.47"/>
				<path class="st7" d="M2284.07,589.64l-33.76-18.37c7.38-10.52,15.03-19.95,22.75-28.69l33.76,18.37
					C2299.1,569.69,2291.45,579.12,2284.07,589.64"/>
				<path class="st8" d="M2306.82,560.95l-33.76-18.37c9.79-11.08,19.68-21.04,29.24-30.64c5.8-5.83,13.26-13.3,22.5-21.62
					l33.76,18.37c-9.24,8.32-16.7,15.79-22.5,21.62C2326.5,539.92,2316.61,549.87,2306.82,560.95"/>
				<path class="st9" d="M2358.56,508.69l-33.76-18.37c10.35-9.32,22.93-19.71,37.9-30.07l33.76,18.37
					C2381.5,488.98,2368.92,499.37,2358.56,508.69"/>
				<path class="st10" d="M2396.47,478.62l-33.76-18.37c7.12-4.93,14.78-9.84,22.99-14.64c9.61-5.61,18.9-10.43,27.75-14.6
					l33.76,18.37c-8.85,4.17-18.14,8.99-27.75,14.6C2411.24,468.77,2403.59,473.69,2396.47,478.62"/>
				<path class="st2" d="M2447.21,449.38l-33.76-18.37c22.27-10.5,41.76-16.94,56.54-21.76c28.41-9.38,43.69-14.39,57.65-16.35
					c12.33-1.64,20.94-4.05,32.79-6.6c5.54-1.18,11.95-2.87,17.65-5.55l33.76,18.37c-5.7,2.68-12.11,4.37-17.65,5.55
					c-11.84,2.54-20.46,4.96-32.79,6.6c-13.95,1.96-29.24,6.98-57.65,16.35C2488.97,432.44,2469.48,438.88,2447.21,449.38"/>
				<path class="st10" d="M2611.84,399.11l-33.76-18.37c2.02-0.95,3.95-2.03,5.72-3.25l33.76,18.37
					C2615.79,397.08,2613.86,398.16,2611.84,399.11"/>
				<path class="st9" d="M2617.57,395.86l-33.76-18.37c1.04-0.72,2.03-1.49,2.95-2.32l33.76,18.37
					C2619.6,394.37,2618.61,395.14,2617.57,395.86"/>
				<path class="st8" d="M2620.52,393.55l-33.76-18.37c0.69-0.62,1.34-1.27,1.95-1.95l33.76,18.37
					C2621.86,392.28,2621.21,392.93,2620.52,393.55"/>
				<path class="st7" d="M2622.46,391.59l-33.76-18.37c0.53-0.6,1.02-1.22,1.48-1.87l33.76,18.37
					C2623.49,390.37,2622.99,391,2622.46,391.59"/>
				<path class="st6" d="M2623.94,389.73l-33.76-18.37c0.44-0.63,0.85-1.29,1.22-1.97l33.76,18.37
					C2624.79,388.44,2624.39,389.09,2623.94,389.73"/>
				<path class="st5" d="M2625.16,387.76l-33.76-18.37c0.41-0.77,0.77-1.57,1.07-2.4l33.76,18.37
					C2625.93,386.19,2625.57,386.99,2625.16,387.76"/>
				<path class="st4" d="M2626.23,385.35l-33.76-18.37c0.85-2.33,1.25-4.92,1.1-7.82c-0.4-7.91-3.42-12.36-7.76-14.72l33.76,18.37
					c4.34,2.36,7.36,6.8,7.76,14.72C2627.49,380.43,2627.08,383.03,2626.23,385.35"/>
			</g>
		</g>
		<g class="st0">
			<defs>
				<path id="SVGID_5_" class="st0" d="M2343.2,362.68l33.76,18.37c14.86,8.08,18.81,25.07,19.41,27.92l-33.76-18.37
					C2362,387.75,2358.05,370.76,2343.2,362.68z"/>
			</defs>
			<clipPath id="SVGID_6_">
				<use xlink:href="#SVGID_5_"  style="overflow:visible;"/>
			</clipPath>
			<g class="st11">
				<path class="st4" d="M2396.37,408.97l-33.76-18.37c-0.6-2.85-4.55-19.84-19.41-27.92l33.76,18.37
					C2391.82,389.13,2395.77,406.12,2396.37,408.97"/>
			</g>
		</g>
		<g class="st0">
			<defs>
				<path id="SVGID_7_" class="st0" d="M2094.11,788.17l33.76,18.37c19.71,10.72,36.46,20.84,50.03,29.47l-33.76-18.37
					C2130.56,809.01,2113.82,798.9,2094.11,788.17z"/>
			</defs>
			<clipPath id="SVGID_8_">
				<use xlink:href="#SVGID_7_"  style="overflow:visible;"/>
			</clipPath>
			<g class="st12">
				<path class="st4" d="M2177.9,836.01l-33.76-18.37c-13.57-8.64-30.32-18.75-50.03-29.47l33.76,18.37
					C2147.58,817.26,2164.33,827.38,2177.9,836.01"/>
			</g>
		</g>
		<g class="st0">
			<defs>
				<path id="SVGID_9_" class="st0" d="M2336.16,376.96l33.76,18.37c-5.03-2.73-11-3.89-17.41-2.99l-33.76-18.37
					C2325.16,373.07,2331.13,374.23,2336.16,376.96z"/>
			</defs>
			<clipPath id="SVGID_10_">
				<use xlink:href="#SVGID_9_"  style="overflow:visible;"/>
			</clipPath>
			<g class="st13">
				<path class="st14" d="M2352.51,392.34l-33.76-18.37c3.97-0.56,7.77-0.33,11.28,0.57l33.76,18.37
					C2360.28,392.01,2356.48,391.78,2352.51,392.34"/>
				<path class="st15" d="M2363.79,392.92l-33.76-18.37c1.79,0.46,3.51,1.1,5.14,1.9l33.76,18.37
					C2367.3,394.02,2365.58,393.38,2363.79,392.92"/>
				<path class="st16" d="M2368.93,394.81l-33.76-18.37c0.33,0.16,0.67,0.34,0.99,0.51l33.76,18.37
					C2369.6,395.15,2369.26,394.98,2368.93,394.81"/>
			</g>
		</g>
		<g class="st0">
			<defs>
				<path id="SVGID_11_" class="st0" d="M2334.99,459.66l-33.76-18.37c-9.1-4.95-15.14-15.09-15.12-27.59
					c0.04-19.4,14.66-37.21,32.64-39.73l33.76,18.37c-17.98,2.53-32.6,20.33-32.64,39.73
					C2319.85,444.57,2325.89,454.71,2334.99,459.66z"/>
			</defs>
			<clipPath id="SVGID_12_">
				<use xlink:href="#SVGID_11_"  style="overflow:visible;"/>
			</clipPath>
			<g class="st17">
				<path class="st18" d="M2334.99,459.66l-33.76-18.37c-9.1-4.95-15.14-15.09-15.12-27.59c0.01-4.77,0.9-9.45,2.51-13.83
					l33.76,18.37c-1.61,4.38-2.5,9.05-2.51,13.83C2319.85,444.57,2325.89,454.71,2334.99,459.66"/>
				<path class="st19" d="M2322.38,418.25l-33.76-18.37c0.69-1.89,1.52-3.72,2.47-5.48l33.76,18.37
					C2323.9,414.53,2323.07,416.36,2322.38,418.25"/>
				<path class="st20" d="M2324.85,412.76l-33.76-18.37c0.8-1.49,1.69-2.93,2.66-4.31l33.76,18.37
					C2326.54,409.83,2325.65,411.27,2324.85,412.76"/>
				<path class="st21" d="M2327.51,408.46l-33.76-18.37c0.91-1.3,1.89-2.54,2.94-3.73l33.76,18.37
					C2329.4,405.91,2328.42,407.16,2327.51,408.46"/>
				<path class="st22" d="M2330.44,404.73l-33.76-18.37c1.05-1.19,2.16-2.31,3.33-3.36l33.76,18.37
					C2332.6,402.42,2331.49,403.54,2330.44,404.73"/>
				<path class="st16" d="M2333.77,401.37L2300,383c1.25-1.13,2.57-2.17,3.94-3.12l33.76,18.37
					C2336.34,399.2,2335.02,400.24,2333.77,401.37"/>
				<path class="st15" d="M2337.71,398.25l-33.76-18.37c1.68-1.17,3.45-2.19,5.29-3.05L2343,395.2
					C2341.16,396.06,2339.39,397.09,2337.71,398.25"/>
				<path class="st14" d="M2343,395.2l-33.76-18.37c3.01-1.41,6.2-2.4,9.51-2.86l33.76,18.37
					C2349.2,392.81,2346.01,393.79,2343,395.2"/>
			</g>
		</g>
		<g>
			
				<ellipse transform="matrix(0.4779 -0.8784 0.8784 0.4779 852.774 2289.6824)" class="st23" cx="2352.44" cy="427.5" rx="36.6" ry="31.28"/>
		</g>
		<g class="st0">
			<defs>
				<path id="SVGID_13_" class="st0" d="M1491.62,1934.49l-33.76-18.37c5.66-13.79,14.54-33.99,27.09-57.39
					c40.35-75.13,86.29-122.3,106.73-143.74c67.75-71.04,118.17-135.75,219.12-265.23c30.08-38.61,73.26-100.82,134.48-169.79
					c15.87-17.91,133.84-113.17,148.58-125.81c54.72-47.13,70.03-87.18,88.19-121.23c37.02-69.16,39.22-135.34,40.04-161.9
					c0.82-24.31,1.97-71.4-18.16-121.52c-2.72-6.79-5.32-12.18-7.09-15.9l33.76,18.37c1.77,3.72,4.37,9.12,7.09,15.9
					c20.13,50.11,18.98,97.2,18.16,121.52c-0.82,26.56-3.02,92.74-40.04,161.9c-18.15,34.05-33.47,74.1-88.19,121.23
					c-14.73,12.63-132.71,107.89-148.58,125.81c-61.22,68.97-104.4,131.19-134.48,169.79
					c-100.95,129.49-151.37,194.19-219.12,265.23c-20.44,21.44-66.38,68.61-106.73,143.74
					C1506.15,1900.5,1497.28,1920.69,1491.62,1934.49z"/>
			</defs>
			<clipPath id="SVGID_14_">
				<use xlink:href="#SVGID_13_"  style="overflow:visible;"/>
			</clipPath>
			<g class="st24">
				<path class="st5" d="M1491.62,1934.49l-33.76-18.37c5.66-13.79,14.54-33.99,27.09-57.39c0.07-0.13,0.14-0.26,0.21-0.39
					l33.76,18.37c-0.07,0.13-0.14,0.26-0.21,0.39C1506.15,1900.5,1497.28,1920.69,1491.62,1934.49"/>
				<path class="st6" d="M1518.92,1876.7l-33.76-18.37c12.27-22.81,25.05-43.03,37.47-60.73l33.76,18.37
					C1543.97,1833.67,1531.19,1853.9,1518.92,1876.7"/>
				<path class="st7" d="M1556.39,1815.97l-33.76-18.37c15.58-22.21,30.6-40.46,43.32-54.86l33.76,18.37
					C1586.99,1775.51,1571.98,1793.76,1556.39,1815.97"/>
				<path class="st8" d="M1599.71,1761.11l-33.76-18.37c10.44-11.82,19.34-21.05,25.73-27.76c15.22-15.96,29.56-31.6,43.8-47.72
					l33.76,18.37c-14.24,16.12-28.58,31.76-43.8,47.72C1619.05,1740.06,1610.15,1749.29,1599.71,1761.11"/>
				<path class="st7" d="M1669.24,1685.63l-33.76-18.37c49.15-55.66,97.04-117.11,175.32-217.51
					c29.69-38.1,72.12-99.18,132.07-167.07l33.76,18.37c-59.94,67.88-102.38,128.97-132.07,167.07
					C1766.29,1568.52,1718.39,1629.97,1669.24,1685.63"/>
				<path class="st8" d="M1976.64,1301.05l-33.76-18.37c0.8-0.91,1.61-1.82,2.41-2.73c2.27-2.56,6.64-6.71,12.49-11.98l33.76,18.37
					c-5.85,5.26-10.22,9.41-12.49,11.98C1978.24,1299.24,1977.44,1300.15,1976.64,1301.05"/>
				<path class="st9" d="M1991.54,1286.35l-33.76-18.37c35.04-31.51,123.46-103,136.09-113.83c2.14-1.84,4.22-3.68,6.24-5.5
					l33.76,18.37c-2.02,1.82-4.1,3.65-6.24,5.5C2115,1183.34,2026.58,1254.83,1991.54,1286.35"/>
				<path class="st8" d="M2133.87,1167.02l-33.76-18.37c9.9-8.92,18.42-17.59,25.85-26l33.76,18.37
					C2152.29,1149.43,2143.77,1158.1,2133.87,1167.02"/>
				<path class="st7" d="M2159.72,1141.02l-33.76-18.37c7.41-8.39,13.74-16.54,19.28-24.44l33.76,18.37
					C2173.46,1124.48,2167.13,1132.63,2159.72,1141.02"/>
				<path class="st6" d="M2179.01,1116.58l-33.76-18.37c7.95-11.34,14.28-22.19,19.86-32.56l33.76,18.37
					C2193.29,1094.39,2186.96,1105.24,2179.01,1116.58"/>
				<path class="st5" d="M2198.87,1084.02l-33.76-18.37c6.18-11.48,11.43-22.38,16.95-32.73c7.38-13.79,13.38-27.47,18.26-40.74
					l33.76,18.37c-4.88,13.27-10.88,26.94-18.26,40.74C2210.3,1061.64,2205.04,1072.54,2198.87,1084.02"/>
				<path class="st4" d="M2234.08,1010.55l-33.76-18.37c19.58-53.25,21.12-99.9,21.78-121.16c0.82-24.31,1.97-71.4-18.16-121.52
					c-2.72-6.79-5.32-12.18-7.09-15.9l33.76,18.37c1.77,3.72,4.37,9.12,7.09,15.9c20.13,50.11,18.98,97.2,18.16,121.52
					C2255.2,910.65,2253.66,957.31,2234.08,1010.55"/>
			</g>
		</g>
		<g class="st0">
			<defs>
				<path id="SVGID_15_" class="st0" d="M1917.64,1119.25l-33.76-18.37c4.04-2.1,9.91-5.11,17.04-8.54
					c16.74-8.05,64.89-30.12,130.69-44.42c12.34-2.65,26.62-5.32,42.57-7.56l33.76,18.37c-15.95,2.24-30.24,4.91-42.57,7.56
					c-65.81,14.31-113.95,36.37-130.69,44.42C1927.55,1114.15,1921.67,1117.15,1917.64,1119.25z"/>
			</defs>
			<clipPath id="SVGID_16_">
				<use xlink:href="#SVGID_15_"  style="overflow:visible;"/>
			</clipPath>
			<g class="st25">
				<path class="st10" d="M1917.64,1119.25l-33.76-18.37c4.04-2.1,9.91-5.11,17.04-8.54c1.01-0.49,2.14-1.03,3.39-1.61l33.76,18.37
					c-1.24,0.59-2.37,1.13-3.39,1.61C1927.55,1114.15,1921.67,1117.15,1917.64,1119.25"/>
				<path class="st2" d="M1938.06,1109.1l-33.76-18.37c19.25-9.08,65.49-29.37,127.31-42.81c12.34-2.65,26.62-5.32,42.57-7.56
					l33.76,18.37c-15.95,2.24-30.24,4.91-42.57,7.56C2003.55,1079.73,1957.32,1100.02,1938.06,1109.1"/>
			</g>
		</g>
		<g class="st0">
			<defs>
				<path id="SVGID_17_" class="st0" d="M2322.03,293.71l-33.76-18.37c42.93-6.03,77.97-0.79,102.96,2.98
					c31.19,4.71,67.24,13.98,121.07,27.93c13.52,3.54,35.45,9.36,66.23,11.11c24.08,1.42,42.77-0.25,51.07-1.03
					c79.61-7.54,131.8-14.22,159.04-18.05c15.31-2.15,22.36-3.34,22.74-3.4c21.41-3.65,47.09-7.75,76.86-11.93
					c38.37-5.39,83.54-10.94,135.12-15.88l33.76,18.37c-51.58,4.94-96.75,10.48-135.12,15.88c-29.77,4.18-55.45,8.28-76.86,11.93
					c-0.37,0.06-7.43,1.25-22.74,3.4c-27.24,3.83-79.43,10.51-159.04,18.05c-8.31,0.78-26.99,2.45-51.07,1.03
					c-30.78-1.76-52.72-7.57-66.23-11.11c-53.83-13.94-89.88-23.22-121.07-27.93C2400,292.93,2364.96,287.68,2322.03,293.71z"/>
			</defs>
			<clipPath id="SVGID_18_">
				<use xlink:href="#SVGID_17_"  style="overflow:visible;"/>
			</clipPath>
			<g class="st26">
				<path class="st2" d="M2322.03,293.71l-33.76-18.37c42.93-6.03,77.97-0.79,102.96,2.98c30.04,4.53,64.59,13.3,115.19,26.4
					l33.76,18.37c-50.6-13.1-85.15-21.87-115.19-26.4C2400,292.93,2364.96,287.68,2322.03,293.71"/>
				<path class="st10" d="M2540.18,323.09l-33.76-18.37c1.94,0.5,3.89,1.01,5.88,1.52c1.12,0.29,2.29,0.6,3.52,0.92l33.76,18.37
					c-1.23-0.32-2.4-0.63-3.52-0.92C2544.07,324.1,2542.11,323.59,2540.18,323.09"/>
				<path class="st2" d="M2549.58,325.54l-33.76-18.37c13.68,3.55,34.47,8.58,62.71,10.19c24.08,1.42,42.77-0.25,51.07-1.03
					c79.61-7.54,131.8-14.22,159.04-18.05c15.31-2.15,22.36-3.34,22.74-3.4c21.41-3.65,47.09-7.75,76.86-11.93
					c38.37-5.39,83.54-10.94,135.12-15.88l33.76,18.37c-51.58,4.94-96.75,10.48-135.12,15.88c-29.77,4.18-55.45,8.28-76.86,11.93
					c-0.37,0.06-7.43,1.25-22.74,3.4c-27.24,3.83-79.43,10.51-159.04,18.05c-8.31,0.78-26.99,2.45-51.07,1.03
					C2584.05,334.12,2563.26,329.09,2549.58,325.54"/>
			</g>
		</g>
		<g class="st0">
			<defs>
				<path id="SVGID_19_" class="st0" d="M2059.03,605.97l33.76,18.37c44.98,24.47,74.57,57.92,92.94,83.95l-33.76-18.37
					C2133.6,663.89,2104.01,630.44,2059.03,605.97z"/>
			</defs>
			<clipPath id="SVGID_20_">
				<use xlink:href="#SVGID_19_"  style="overflow:visible;"/>
			</clipPath>
			<g class="st27">
				<path class="st4" d="M2185.73,708.28l-33.76-18.37c-18.36-26.02-47.96-59.48-92.94-83.95l33.76,18.37
					C2137.77,648.8,2167.36,682.26,2185.73,708.28"/>
			</g>
		</g>
		<g class="st0">
			<defs>
				<path id="SVGID_21_" class="st0" d="M1305.45,2054.12l-33.76-18.37c-2.78-35.01-2.31-64.53-1.26-85.61
					c2.59-50.68,4.85-88.07,24.38-127.56c12.5-25.25,26.65-40.43,42.7-58.11c43.39-47.65,82.75-99.4,126.61-146.47
					c14.5-15.55,63.25-78.16,160.82-203.39c94.71-121.63,125.33-162.36,183.53-229.57c31.62-36.45,58.13-65.53,75.43-84.16
					l33.76,18.37c-17.29,18.63-43.8,47.7-75.43,84.16c-58.19,67.2-88.81,107.93-183.53,229.57
					c-97.57,125.23-146.32,187.84-160.82,203.39c-43.86,47.07-83.22,98.83-126.61,146.47c-16.05,17.68-30.19,32.86-42.7,58.11
					c-19.53,39.49-21.79,76.88-24.38,127.56C1303.13,1989.59,1302.66,2019.11,1305.45,2054.12z"/>
			</defs>
			<clipPath id="SVGID_22_">
				<use xlink:href="#SVGID_21_"  style="overflow:visible;"/>
			</clipPath>
			<g class="st28">
				<path class="st4" d="M1305.45,2054.12l-33.76-18.37c-2.78-35.01-2.31-64.53-1.26-85.61c2.17-42.49,4.11-75.64,16.19-108.51
					l33.76,18.37c-12.08,32.88-14.02,66.02-16.19,108.51C1303.13,1989.59,1302.66,2019.11,1305.45,2054.12"/>
				<path class="st5" d="M1320.37,1860l-33.76-18.37c2.33-6.34,5.03-12.66,8.19-19.05c0.99-2.01,2-3.95,3.01-5.84l33.76,18.37
					c-1.01,1.89-2.02,3.83-3.01,5.84C1325.4,1847.33,1322.7,1853.66,1320.37,1860"/>
				<path class="st6" d="M1331.57,1835.11l-33.76-18.37c3.64-6.77,7.42-12.8,11.34-18.38l33.76,18.37
					C1338.99,1822.32,1335.21,1828.35,1331.57,1835.11"/>
				<path class="st7" d="M1342.91,1816.73l-33.76-18.37c5.59-7.96,11.46-15.02,17.64-22.01l33.76,18.37
					C1354.37,1801.71,1348.49,1808.77,1342.91,1816.73"/>
				<path class="st8" d="M1360.55,1794.72l-33.76-18.37c3.47-3.93,7.04-7.84,10.7-11.88c4.15-4.55,8.26-9.15,12.34-13.77
					l33.76,18.37c-4.08,4.62-8.19,9.21-12.34,13.77C1367.59,1786.88,1364.02,1790.79,1360.55,1794.72"/>
				<path class="st7" d="M1383.59,1769.07l-33.76-18.37c31.96-36.19,62.12-74.22,94.06-110.39l33.76,18.37
					C1445.71,1694.85,1415.55,1732.88,1383.59,1769.07"/>
				<path class="st8" d="M1477.65,1658.69l-33.76-18.37c6.65-7.53,13.38-14.98,20.21-22.32c0.78-0.83,1.65-1.8,2.63-2.91
					l33.76,18.37c-0.98,1.11-1.85,2.07-2.63,2.91C1491.03,1643.7,1484.3,1651.15,1477.65,1658.69"/>
				<path class="st7" d="M1500.49,1633.46l-33.76-18.37c17.24-19.53,65.86-81.96,158.19-200.48
					c94.71-121.63,125.33-162.36,183.53-229.57c7.26-8.37,14.26-16.36,20.93-23.92l33.76,18.37c-6.67,7.56-13.67,15.54-20.93,23.92
					c-58.19,67.2-88.81,107.93-183.53,229.57C1566.35,1551.5,1517.73,1613.93,1500.49,1633.46"/>
				<path class="st8" d="M1863.15,1179.49l-33.76-18.37c22.38-25.34,41.17-45.89,54.49-60.24l33.76,18.37
					C1904.32,1133.6,1885.53,1154.15,1863.15,1179.49"/>
			</g>
		</g>
		<g>
			<path class="st29" d="M2107.94,1058.73c13.13-1.85,27.38-3.4,42.62-4.41c-31.97,33.56-76.9,81.61-129.45,140.79
				c-71.03,79.95-122.93,143.2-163.65,193.1c-176.27,216.06-214.86,271.61-320.08,398.88c-52.43,63.39-131.14,156.39-231.94,267.03
				c-2.78-35.01-2.31-64.53-1.26-85.61c2.59-50.68,4.85-88.07,24.38-127.56c12.5-25.25,26.65-40.43,42.7-58.11
				c43.39-47.65,82.75-99.4,126.61-146.47c14.5-15.55,63.25-78.16,160.82-203.39c94.71-121.63,125.33-162.36,183.53-229.57
				c31.62-36.45,58.13-65.53,75.43-84.16c4.04-2.1,9.91-5.11,17.04-8.54c16.74-8.05,64.89-30.12,130.69-44.42
				C2077.7,1063.64,2091.99,1060.97,2107.94,1058.73z"/>
		</g>
		<g>
			<path class="st29" d="M2322.03,293.71c42.93-6.03,77.97-0.79,102.96,2.98c31.19,4.71,67.24,13.98,121.07,27.93
				c13.52,3.54,35.45,9.36,66.23,11.11c24.08,1.42,42.77-0.25,51.07-1.03c79.61-7.54,131.8-14.22,159.04-18.05
				c15.31-2.15,22.36-3.34,22.74-3.4c21.41-3.65,47.09-7.75,76.86-11.93c38.37-5.39,83.54-10.94,135.12-15.88
				c-22.85,7.82-61.55,20.88-109.8,35.92c-128.55,40.02-168.83,45.88-249.98,80.07c-62.39,26.25-93.55,39.33-130.74,69.46
				c-19.13,15.43-84.59,69.7-123.38,164.39c-25.26,61.94-28.74,115.62-30.52,147.31c-2.64,47.42,3.81,57.79,3.59,109.8
				c-0.1,21.84-0.69,86.07-19.21,155.9c-31.18,117.7-98.71,198.18-119.69,221.11c-46.48,50.96-89.24,79.12-164.89,127.33
				c-48.58,31.03-90.73,53.28-121.24,68.19c-0.56,0.06-201.49,233.1-249.43,294.97c-52.92,68.32-89.76,104.67-137.91,132.76
				c-44.53,25.91-84.95,36.78-112.3,41.84c5.66-13.79,14.54-33.99,27.09-57.39c40.35-75.13,86.29-122.3,106.73-143.74
				c67.75-71.04,118.17-135.75,219.12-265.23c30.08-38.61,73.26-100.82,134.48-169.79c15.87-17.91,133.84-113.17,148.58-125.81
				c54.72-47.13,70.03-87.18,88.19-121.23c37.02-69.16,39.22-135.34,40.04-161.9c0.82-24.31,1.97-71.4-18.16-121.52
				c-2.72-6.79-5.32-12.18-7.09-15.9c1.01-31.45,7.26-77.07,31.49-125.42c21.79-43.71,49.01-71.16,73.96-96.24
				c15.39-15.48,42.49-42.46,83.4-66.33c33.79-19.73,63.64-29.62,84.29-36.37c28.41-9.38,43.69-14.39,57.65-16.35
				c12.33-1.64,20.94-4.05,32.79-6.6c14.18-3.02,34.06-9.4,33.15-27.13c-0.97-19.26-17.46-17.97-30.75-16.1
				c-3.02,0.29-5.76,0.6-8.57,1c-9.49,1.33-19.63,3.62-42.99,9.32c-28.19,6.84-28.6,4.21-56.31,11.5
				c-16.5,4.3-19.7,6.16-41.19,12.45c-21.72,6.32-39.46,10.6-51.15,13.27c-0.65-3.05-5.12-22.26-22.66-29.46
				c-6.2-2.56-12.4-2.95-18.14-2.14c-13.42,1.89-24.4,10.27-27.31,12.56c-3.62,2.94-19.78,15.97-22.79,37.96
				c-2.71,20.03,7.47,33.07,9.42,35.42c-21.51,19.28-55.08,53.84-83.47,105.71c-31.54,57.63-41.84,109.72-45.69,139.26
				c-18.58-26.33-48.64-60.26-94.51-84.79c-15.11-8.12-29.81-14.06-43.5-18.41c2.41-22.23,18.8-158.27,121.63-243.85
				c54.3-45.21,112.09-59.22,128.83-63.11C2306.37,296.24,2314.33,294.8,2322.03,293.71z"/>
		</g>
		<g class="st0">
			<defs>
				<path id="SVGID_23_" class="st0" d="M2047.72,605.08l-33.76-18.37c2.41-22.23,18.8-158.27,121.63-243.85
					c54.3-45.21,112.09-59.22,128.83-63.11c8.2-1.88,16.15-3.33,23.85-4.41l33.76,18.37c-7.7,1.08-15.66,2.53-23.85,4.41
					c-16.73,3.89-74.53,17.9-128.83,63.11C2066.52,446.81,2050.13,582.85,2047.72,605.08z"/>
			</defs>
			<clipPath id="SVGID_24_">
				<use xlink:href="#SVGID_23_"  style="overflow:visible;"/>
			</clipPath>
			<g class="st30">
				<path class="st4" d="M2047.72,605.08l-33.76-18.37c1.22-11.23,6-51.48,23.68-99.61l33.76,18.37
					C2053.72,553.6,2048.94,593.85,2047.72,605.08"/>
				<path class="st5" d="M2071.4,505.47l-33.76-18.37c5.94-16.16,13.33-33.21,22.53-50.35l33.76,18.37
					C2084.73,472.26,2077.34,489.31,2071.4,505.47"/>
				<path class="st6" d="M2093.94,455.13l-33.76-18.37c6.27-11.68,13.38-23.39,21.44-34.89l33.76,18.37
					C2107.32,431.74,2100.21,443.45,2093.94,455.13"/>
				<path class="st7" d="M2115.38,420.23l-33.76-18.37c6.59-9.41,13.82-18.67,21.75-27.65l33.76,18.37
					C2129.2,401.57,2121.97,410.83,2115.38,420.23"/>
				<path class="st8" d="M2137.12,392.59l-33.76-18.37c7.34-8.31,15.27-16.38,23.85-24.1l33.76,18.37
					C2152.39,376.2,2144.46,384.27,2137.12,392.59"/>
				<path class="st9" d="M2160.97,368.48l-33.76-18.37c2.73-2.45,5.52-4.87,8.38-7.25c6.86-5.72,13.79-10.93,20.67-15.69
					l33.76,18.37c-6.89,4.76-13.81,9.98-20.67,15.69C2166.49,363.61,2163.7,366.03,2160.97,368.48"/>
				<path class="st10" d="M2190.02,345.54l-33.76-18.37c15-10.37,29.85-18.58,43.59-25.06l33.76,18.37
					C2219.86,326.96,2205.02,335.17,2190.02,345.54"/>
				<path class="st2" d="M2233.61,320.48l-33.76-18.37c29.85-14.08,54.55-20.03,64.56-22.35c8.2-1.88,16.15-3.33,23.85-4.41
					l33.76,18.37c-7.7,1.08-15.66,2.53-23.85,4.41C2288.17,300.45,2263.47,306.4,2233.61,320.48"/>
			</g>
		</g>
		<g class="st0">
			<defs>
				<path id="SVGID_25_" class="st0" d="M1987.63,520.95l-33.76-18.37c5.05,2.75,9.42,5.08,12.96,6.96l33.76,18.37
					C1997.05,526.03,1992.68,523.7,1987.63,520.95z"/>
			</defs>
			<clipPath id="SVGID_26_">
				<use xlink:href="#SVGID_25_"  style="overflow:visible;"/>
			</clipPath>
			<g class="st31">
				<path class="st9" d="M1987.63,520.95l-33.76-18.37c5.05,2.75,9.42,5.08,12.95,6.96l33.76,18.37
					C1997.05,526.03,1992.68,523.7,1987.63,520.95"/>
			</g>
		</g>
		<g class="st0">
			<defs>
				<path id="SVGID_27_" class="st0" d="M1496.41,916.49l-33.76-18.37c19.09,2.18,46.49,5.25,79.46,8.74
					c127.14,13.5,190.66,20.32,262.54,24.37c98.87,5.63,151.17,8.46,194.47,7.88c25.74-0.29,52.14-3.29,74.56-2.03
					c9.49,0.59,39.31,9.07,46.06,12.67l33.76,18.37c-6.75-3.6-36.57-12.08-46.06-12.67c-22.42-1.27-48.82,1.74-74.56,2.03
					c-43.3,0.58-95.61-2.25-194.47-7.88c-71.88-4.05-135.39-10.87-262.54-24.37C1542.91,921.73,1515.51,918.67,1496.41,916.49z"/>
			</defs>
			<clipPath id="SVGID_28_">
				<use xlink:href="#SVGID_27_"  style="overflow:visible;"/>
			</clipPath>
			<g class="st32">
				<path class="st2" d="M1496.41,916.49l-33.76-18.37c19.09,2.18,46.49,5.25,79.46,8.74c127.14,13.5,190.66,20.32,262.54,24.37
					c98.87,5.63,151.17,8.46,194.47,7.88c25.74-0.29,52.14-3.29,74.56-2.03c3.85,0.24,11.06,1.78,18.72,3.77l33.76,18.37
					c-7.65-1.99-14.86-3.53-18.72-3.77c-22.42-1.27-48.82,1.74-74.56,2.03c-43.3,0.58-95.61-2.25-194.47-7.88
					c-71.88-4.05-135.39-10.87-262.54-24.37C1542.91,921.73,1515.51,918.67,1496.41,916.49"/>
				<path class="st10" d="M2126.16,959.22l-33.76-18.37c10.72,2.78,22.3,6.44,26.79,8.62l33.76,18.37
					C2148.47,965.66,2136.88,962,2126.16,959.22"/>
				<path class="st9" d="M2152.96,967.84l-33.76-18.37c0.2,0.1,0.38,0.19,0.55,0.28l33.76,18.37
					C2153.34,968.03,2153.16,967.93,2152.96,967.84"/>
			</g>
		</g>
		<g>
			<path class="st29" d="M1496.41,916.49c19.09,2.18,46.49,5.25,79.46,8.74c127.14,13.5,190.66,20.32,262.54,24.37
				c98.87,5.63,151.17,8.46,194.47,7.88c25.74-0.29,52.14-3.29,74.56-2.03c9.49,0.59,39.31,9.07,46.06,12.67
				c10.96,5.82,16.46,16.25,19.89,23.26c-8.41,0.93-18.42,2.15-29.8,3.75c-18.11,2.55-39.71,6.06-63.94,10.96
				c-72.75,14.77-97.44,27.59-181.77,50.07c-55.98,14.92-93.48,24.91-124.91,29.32c-16.21,2.28-30.8,3.08-45.49,2.31
				c-27.04-1.45-79.35-4.92-131.96-39.71C1533.14,1006.84,1506.62,945.46,1496.41,916.49z"/>
		</g>
		<g class="st0">
			<defs>
				<path id="SVGID_29_" class="st0" d="M1612.36,1058.2l-33.76-18.37c-5.59-3.04-11.22-6.41-16.84-10.13
					c-62.38-41.23-88.9-102.61-99.11-131.59l33.76,18.37c10.21,28.97,36.73,90.35,99.11,131.59
					C1601.15,1051.8,1606.77,1055.16,1612.36,1058.2z"/>
			</defs>
			<clipPath id="SVGID_30_">
				<use xlink:href="#SVGID_29_"  style="overflow:visible;"/>
			</clipPath>
			<g class="st33">
				<path class="st4" d="M1612.36,1058.2l-33.76-18.37c-5.59-3.04-11.22-6.41-16.84-10.13c-62.38-41.23-88.9-102.61-99.11-131.59
					l33.76,18.37c10.21,28.97,36.73,90.35,99.11,131.59C1601.15,1051.8,1606.77,1055.16,1612.36,1058.2"/>
			</g>
		</g>
		<g>
			<path class="st29" d="M1270.74,623.37c19.5,5.71,52.52,15.34,93.67,26.66c247.33,68.05,447.29,109.16,457.81,111.33
				c68.96,14.19,130.32,25.54,211.88,59.08c62.17,25.58,38.7,15.3,98.32,41.37c22.4,9.78,44.68,25.03,50.09,46.1
				c2.41,9.26,7.98,17.32,6.6,23.59c-28.1-7.64-75.95-16.79-126.77-25.08c-49.75-8.12-81.89-10.19-177.91-16.93
				c-224.53-15.69-139.13-10.86-210.06-15.42c-94.36-6.07-131.07-7.25-186.38-21.82c-29.94-7.83-64.39-11.12-98.34-35.15
				c-17.71-12.56-30.38-26.33-52.93-50.82c-25.34-27.49-38-41.26-48.16-62.69C1281.17,687.97,1271.67,661.65,1270.74,623.37z"/>
		</g>
		<g class="st0">
			<defs>
				<path id="SVGID_31_" class="st0" d="M1404.63,826.42l-33.76-18.37c-4.99-2.72-9.99-5.8-14.98-9.33
					c-17.71-12.56-30.38-26.33-52.93-50.82c-25.34-27.49-38-41.26-48.16-62.69c-7.39-15.61-16.89-41.93-17.82-80.21l33.76,18.37
					c0.94,38.28,10.44,64.6,17.82,80.21c10.16,21.43,22.83,35.2,48.16,62.69c22.55,24.49,35.22,38.26,52.93,50.82
					C1394.64,820.62,1399.64,823.71,1404.63,826.42z"/>
			</defs>
			<clipPath id="SVGID_32_">
				<use xlink:href="#SVGID_31_"  style="overflow:visible;"/>
			</clipPath>
			<g class="st34">
				<path class="st4" d="M1404.63,826.42l-33.76-18.37c-4.99-2.72-9.99-5.8-14.98-9.33c-17.71-12.56-30.38-26.33-52.93-50.82
					c-25.34-27.49-38-41.26-48.16-62.69c-7.39-15.61-16.89-41.93-17.82-80.21l33.76,18.37c0.94,38.28,10.44,64.6,17.82,80.21
					c10.16,21.43,22.83,35.2,48.16,62.69c22.55,24.49,35.22,38.26,52.93,50.82C1394.64,820.62,1399.64,823.71,1404.63,826.42"/>
			</g>
		</g>
		<g class="st0">
			<defs>
				<path id="SVGID_33_" class="st0" d="M2111.11,849.51l33.76,18.37c-4.08-2.22-8.27-4.24-12.46-6.07
					c-59.62-26.06-36.15-15.79-98.32-41.37c-81.55-33.54-142.92-44.89-211.88-59.08c-10.52-2.16-210.48-43.27-457.81-111.33
					c-41.14-11.31-74.16-20.95-93.67-26.66l-33.76-18.37c19.5,5.71,52.52,15.34,93.67,26.66
					c247.33,68.05,447.29,109.16,457.81,111.33c68.96,14.19,130.32,25.54,211.88,59.08c62.17,25.58,38.7,15.3,98.32,41.37
					C2102.85,845.27,2107.04,847.29,2111.11,849.51z"/>
			</defs>
			<clipPath id="SVGID_34_">
				<use xlink:href="#SVGID_33_"  style="overflow:visible;"/>
			</clipPath>
			<g class="st35">
				<path class="st10" d="M1270.74,623.37l-33.76-18.37c19.5,5.71,52.52,15.35,93.67,26.66c37.16,10.22,73.25,19.84,107.79,28.81
					l33.76,18.37c-34.54-8.97-70.63-18.58-107.79-28.81C1323.26,638.72,1290.24,629.08,1270.74,623.37"/>
				<path class="st2" d="M1472.19,678.84l-33.76-18.37c195.35,50.72,341.08,80.68,350.02,82.52c35,7.2,68.05,13.67,102.77,22.68
					l33.76,18.37c-34.72-9.01-67.77-15.48-102.77-22.68C1813.27,759.52,1667.54,729.56,1472.19,678.84"/>
				<path class="st10" d="M1924.98,784.04l-33.76-18.37c33.69,8.74,68.95,19.88,109.11,36.4c62.17,25.58,38.7,15.3,98.32,41.37
					c2.33,1.02,4.65,2.09,6.96,3.23l33.76,18.37c-2.31-1.14-4.63-2.21-6.96-3.23c-59.62-26.06-36.15-15.79-98.32-41.37
					C1993.93,803.92,1958.67,792.78,1924.98,784.04"/>
				<path class="st9" d="M2139.38,865.03l-33.76-18.37c1.85,0.91,3.69,1.86,5.5,2.85l33.76,18.37
					C2143.06,866.89,2141.23,865.94,2139.38,865.03"/>
			</g>
		</g>
		<g class="st0">
			<defs>
				<path id="SVGID_35_" class="st0" d="M1479.41,369.1l-33.76-18.37c-6.45-3.51-12.84-7.32-18.91-11.44
					c-15.82-10.71-33.77-23.1-50.03-46.04c-8.52-12.05-16.13-34.61-32.06-79.29c-13.75-38.46-19.05-60.51-17.81-88.4
					c0.37-8.12,1.21-14.96,1.93-19.67l33.76,18.37c-0.72,4.71-1.56,11.55-1.93,19.67c-1.24,27.89,4.06,49.94,17.81,88.4
					c15.93,44.69,23.54,67.24,32.06,79.29c16.27,22.94,34.22,35.33,50.03,46.04C1466.57,361.77,1472.96,365.59,1479.41,369.1z"/>
			</defs>
			<clipPath id="SVGID_36_">
				<use xlink:href="#SVGID_35_"  style="overflow:visible;"/>
			</clipPath>
			<g class="st36">
				<path class="st4" d="M1479.41,369.1l-33.76-18.37c-6.45-3.51-12.84-7.32-18.91-11.44c-15.82-10.71-33.77-23.1-50.03-46.04
					c-8.52-12.05-16.13-34.61-32.06-79.29c-13.75-38.46-19.05-60.51-17.81-88.4c0.37-8.12,1.21-14.96,1.93-19.67l33.76,18.37
					c-0.72,4.71-1.56,11.55-1.93,19.67c-1.24,27.89,4.06,49.94,17.81,88.4c15.93,44.69,23.54,67.24,32.06,79.29
					c16.27,22.94,34.22,35.33,50.03,46.04C1466.57,361.77,1472.96,365.59,1479.41,369.1"/>
			</g>
		</g>
		<g>
			<path class="st29" d="M1362.53,124.25c238.85,131.86,349.69,206.1,405.54,250.49c17.71,14.03,90.38,73.21,198.45,134.46
				c14.34,8.16,26.25,14.56,34.07,18.71c-6.67,14.25-13.34,28.44-19.95,42.69c-232.92-97.03-379.56-154.33-433.85-173.4
				c-6.7-2.32-51.69-16.1-86.29-39.54c-15.82-10.71-33.77-23.1-50.03-46.04c-8.52-12.05-16.13-34.61-32.06-79.29
				c-13.75-38.46-19.05-60.51-17.81-88.4C1360.97,135.8,1361.81,128.96,1362.53,124.25z"/>
		</g>
		<g class="st0">
			<defs>
				<path id="SVGID_37_" class="st0" d="M1213.23,538.52l-33.76-18.37c-28.83-15.68-56.1-36.03-80.35-68.43
					c-38.16-50.91-50.81-107.45-54.69-128.16c-3.58-19.15-4.97-35.92-5.55-48.26l33.76,18.37c0.57,12.34,1.96,29.11,5.55,48.26
					c3.88,20.71,16.52,77.25,54.69,128.16C1157.14,502.49,1184.4,522.84,1213.23,538.52z"/>
			</defs>
			<clipPath id="SVGID_38_">
				<use xlink:href="#SVGID_37_"  style="overflow:visible;"/>
			</clipPath>
			<g class="st37">
				<path class="st4" d="M1213.23,538.52l-33.76-18.37c-28.83-15.68-56.1-36.03-80.35-68.43c-38.16-50.91-50.81-107.45-54.69-128.16
					c-3.58-19.15-4.97-35.92-5.55-48.26l33.76,18.37c0.57,12.34,1.96,29.11,5.55,48.26c3.88,20.71,16.52,77.25,54.69,128.16
					C1157.14,502.49,1184.4,522.84,1213.23,538.52"/>
			</g>
		</g>
		<g>
			<path class="st29" d="M1072.65,293.67c36.75,13.08,91.82,32.61,158.86,56.35c160.81,56.85,170.3,59.87,216.59,76.79
				c52.46,19.26,114.69,43.55,239.28,92.04c34.08,13.26,90.8,36.41,204.24,82.62c48.96,19.94,102.06,41.86,163.55,82.2
				c35.78,23.46,69.3,49.73,96.39,94.77c13.36,22.19,21.45,42.89,26.35,57.56c-29.5-18.77-74-44.53-131.37-68.35
				c-40.84-16.92-77.29-28.38-189.22-56.18c-113.36-28.11-121.54-27.67-230.81-54.37c-146.97-35.94-123.55-34.62-213.78-54.72
				c-76.72-17.13-99.73-19.47-143.76-38.05c-49.19-20.74-96.6-41.54-136.07-94.25c-38.16-50.91-50.81-107.45-54.69-128.16
				C1074.61,322.78,1073.22,306.01,1072.65,293.67z"/>
		</g>
		<g class="st0">
			<defs>
				<path id="SVGID_39_" class="st0" d="M1969.59,634.29l33.76,18.37c-40.33-21.94-77.07-37.05-111.74-51.17
					c-113.44-46.22-170.16-69.36-204.24-82.62c-124.59-48.49-186.82-72.78-239.28-92.04c-46.29-16.92-55.78-19.95-216.59-76.79
					c-67.04-23.74-122.11-43.27-158.86-56.35l-33.76-18.37c36.75,13.08,91.82,32.61,158.86,56.35
					c160.81,56.85,170.3,59.87,216.59,76.79c52.46,19.26,114.69,43.55,239.28,92.04c34.08,13.26,90.8,36.41,204.24,82.62
					C1892.51,597.23,1929.26,612.35,1969.59,634.29z"/>
			</defs>
			<clipPath id="SVGID_40_">
				<use xlink:href="#SVGID_39_"  style="overflow:visible;"/>
			</clipPath>
			<g class="st38">
				<path class="st10" d="M1072.65,293.67l-33.76-18.37c36.75,13.08,91.82,32.61,158.86,56.35
					c160.81,56.85,170.3,59.87,216.59,76.79c52.46,19.26,114.69,43.55,239.28,92.04c34.08,13.26,90.8,36.41,204.24,82.62
					c26.55,10.81,54.31,22.21,83.97,36.81l33.76,18.37c-29.66-14.6-57.42-25.99-83.97-36.81
					c-113.44-46.22-170.16-69.36-204.24-82.62c-124.59-48.49-186.82-72.78-239.28-92.04c-46.29-16.92-55.78-19.95-216.59-76.79
					C1164.46,326.28,1109.4,306.75,1072.65,293.67"/>
				<path class="st9" d="M1975.58,638.28l-33.76-18.37c9.07,4.47,18.32,9.23,27.77,14.37l33.76,18.37
					C1993.9,647.51,1984.65,642.75,1975.58,638.28"/>
			</g>
		</g>
	</g>
</g>
</svg>
