<svg width="190" height="31" viewBox="0 0 190 31" fill="none" xmlns="http://www.w3.org/2000/svg">
<path d="M20.2 13.48L16.72 15.48V15.56L20.2 17.56V27.32L15.56 30H0.4V2H15.56L20.2 4.68V13.48ZM6 17.92V25.2H14.6V17.92H6ZM6 6.8V13.12H14.6V6.8H6ZM43.2016 25.32V30H31.2416L26.6016 27.32V12.48L31.2416 9.8H38.5616L43.2016 12.48V22.04H32.0816V25.32H43.2016ZM32.0816 14.48V17.92H37.7216V14.48H32.0816ZM72.1891 26.16L80.8291 14.76V14.68H72.5891V10H88.0291V13.84L79.3891 25.24V25.32H88.0291V30H72.1891V26.16ZM109.413 25.32V30H97.4525L92.8125 27.32V12.48L97.4525 9.8H104.773L109.413 12.48V22.04H98.2925V25.32H109.413ZM98.2925 14.48V17.92H103.933V14.48H98.2925ZM135.462 23.44H139.942V28.016L136.23 30.16H127.174L123.462 28.016V9.584L127.174 7.44H136.23L139.942 9.584V14.16H135.462V11.28H127.942V26.32H135.462V23.44ZM162.048 30H157.12L152.32 21.552H149.536V30H145.056V7.6H157.184L160.896 9.744V19.408L157.184 21.552L162.048 30ZM149.536 11.44V17.712H156.416V11.44H149.536ZM185.185 30V15.216H185.121L180.065 30H175.809L170.721 15.024H170.657V30H166.337V7.6H172.289L177.921 24.08H177.985L183.585 7.6H189.505V30H185.185Z" fill="white"/>
<path d="M53.8588 30L49.2188 27.32V0.799999H54.6988V25.32H58.6988V30H53.8588ZM67.7847 10V30H62.3047V10H67.7847ZM62.1047 6.28V0.799999H67.9847V6.28H62.1047Z" fill="#2ABAAF"/>
</svg>
